HIERARCHY
ROOT Hips
{
	OFFSET 0.000000 88.474243 0.000000
	CHANNELS 6 Xposition Yposition Zposition Zrotation Yrotation Xrotation 
	JOINT Hips_Spine
	{
		OFFSET 0.000000 0.000000 0.000000
		CHANNELS 3 Zrotation Yrotation Xrotation
		JOINT Spine
		{
			OFFSET 0.005100 8.711998 -0.691000
			CHANNELS 3 Zrotation Yrotation Xrotation
			JOINT Spine1
			{
				OFFSET -0.009200 8.660301 -1.275000
				CHANNELS 3 Zrotation Yrotation Xrotation
				JOINT Spine2
				{
					OFFSET 0.006300 9.852501 -1.857000
					CHANNELS 3 Zrotation Yrotation Xrotation
					JOINT Spine2_Neck
					{
						OFFSET 0.000000 0.000000 0.000000
						CHANNELS 3 Zrotation Yrotation Xrotation
						JOINT Neck
						{
							OFFSET 0.016300 11.420799 -0.263300
							CHANNELS 3 Zrotation Yrotation Xrotation
							End Site #name: Head
							{
								OFFSET -0.019200 9.262405 2.362500
							}
						}
					}
					JOINT Spine2_LeftShoulder
					{
						OFFSET 0.000000 0.000000 0.000000
						CHANNELS 3 Zrotation Yrotation Xrotation
						JOINT LeftShoulder
						{
							OFFSET 5.616900 6.732201 -0.345700
							CHANNELS 3 Zrotation Yrotation Xrotation
							JOINT LeftArm
							{
								OFFSET 10.664888 -0.183372 -2.440700
								CHANNELS 3 Zrotation Yrotation Xrotation
								JOINT LeftForeArm
								{
									OFFSET 27.459126 0.000000 0.000000
									CHANNELS 3 Zrotation Yrotation Xrotation
									End Site #name: LeftHand
									{
										OFFSET 21.306858 0.000000 0.000000
									}
								}
							}
						}
					}
					JOINT Spine2_RightShoulder
					{
						OFFSET 0.000000 0.000000 0.000000
						CHANNELS 3 Zrotation Yrotation Xrotation
						JOINT RightShoulder
						{
							OFFSET -5.580300 6.737503 -0.344400
							CHANNELS 3 Zrotation Yrotation Xrotation
							JOINT RightArm
							{
								OFFSET -10.679335 -0.188484 -2.383900
								CHANNELS 3 Zrotation Yrotation Xrotation
								JOINT RightForeArm
								{
									OFFSET -27.503529 0.000000 0.000000
									CHANNELS 3 Zrotation Yrotation Xrotation
									End Site #name: RightHand
									{
										OFFSET -21.306808 0.000000 0.000000
									}
								}
							}
						}
					}
				}
			}
		}
	}
	JOINT Hips_LeftUpLeg
	{
		OFFSET 0.000000 0.000000 0.000000
		CHANNELS 3 Zrotation Yrotation Xrotation
		JOINT LeftUpLeg
		{
			OFFSET 6.857700 -6.739601 0.312100
			CHANNELS 3 Zrotation Yrotation Xrotation
			JOINT LeftLeg
			{
				OFFSET -0.367590 -34.731552 -4.572400
				CHANNELS 3 Zrotation Yrotation Xrotation
				End Site #name: LeftFoot
				{
					OFFSET 0.367590 -34.656704 -6.067400
				}
			}
		}
	}
	JOINT Hips_RightUpLeg
	{
		OFFSET 0.000000 0.000000 0.000000
		CHANNELS 3 Zrotation Yrotation Xrotation
		JOINT RightUpLeg
		{
			OFFSET -6.876100 -6.733299 0.301000
			CHANNELS 3 Zrotation Yrotation Xrotation
			JOINT RightLeg
			{
				OFFSET 0.347353 -34.795158 -4.515900
				CHANNELS 3 Zrotation Yrotation Xrotation
				End Site #name: RightFoot
				{
					OFFSET -0.347353 -34.589367 -6.070300
				}
			}
		}
	}
}
MOTION
Frames: 10
Frame Time: 0.041667
0.015580 0.066678 -0.034441 -2.549572 -3.109428 -0.527608 -0.000000 0.000000 0.000000 -1.160534 1.382742 5.159466 -0.345383 0.856743 2.794406 0.000000 0.000000 0.000000 -0.214910 1.094059 3.181029 1.264818 -3.058127 2.631150 -0.897682 1.612946 6.358116 -1.999980 -6.286419 0.819097 -65.660382 -14.676501 17.524587 -7.043445 -69.850832 8.322614 -0.477589 1.436168 4.375886 2.975326 -0.484998 1.998320 70.723693 -8.557564 -4.392816 -18.545516 84.687555 -20.169916 -0.000000 0.000000 0.000000 3.636960 -2.979649 -25.142325 7.813690 5.794250 29.407429 0.000000 0.000000 0.000000 -2.627057 -10.665232 -23.477349 1.520052 2.831896 36.221899 
0.118345 0.058321 0.057743 -3.378271 -5.503682 -0.645598 -0.000000 0.000000 0.000000 -0.851855 0.907109 7.454837 -0.519945 1.253856 4.941353 0.000000 0.000000 0.000000 -0.369768 1.117622 4.967212 -1.162491 -2.331079 1.425431 -0.076997 1.683317 8.096232 -2.545493 -4.790420 0.833758 -68.959786 -14.240966 20.713925 -60.350806 -86.120279 61.668154 -0.916533 1.343625 5.687022 3.960071 -3.889252 1.612788 71.437356 -3.160008 4.270715 -156.042483 86.087141 -159.521108 -0.000000 0.000000 0.000000 4.233364 1.803899 -22.128262 5.612191 5.017896 29.213697 0.000000 -0.000000 0.000000 -0.627476 -5.802180 -22.139435 1.149055 2.103424 30.713054 
0.182054 0.133630 0.175153 -3.853570 -6.817995 -1.593535 -0.000000 0.000000 0.000000 -0.801324 0.694569 7.904058 -0.690545 1.331937 5.522951 0.000000 0.000000 0.000000 -0.797504 0.957275 5.897319 -2.060934 -1.567940 1.505085 -0.226125 1.602700 8.355723 -2.192571 -3.488433 0.823819 -72.285008 -15.505468 24.177086 -154.343886 -81.323330 155.808105 -1.325977 1.284156 6.150783 1.904789 -2.895282 2.073173 71.484597 -10.215241 3.936938 -177.460787 83.498619 -179.514841 -0.000000 0.000000 0.000000 4.297542 2.146447 -23.951699 4.104024 3.789586 32.192224 0.000000 -0.000000 0.000000 -2.895890 -5.193583 -19.490465 0.721363 1.352546 28.388978 
0.243182 0.161076 0.250437 -3.781909 -7.452363 -1.788177 -0.000000 0.000000 0.000000 -0.780070 0.742880 7.717970 -0.879671 1.299937 5.834396 0.000000 0.000000 0.000000 -0.968648 0.919123 6.578207 -1.706900 -1.335299 2.604922 -0.171462 1.618029 8.488452 -1.268859 -2.121103 0.711035 -73.622112 -16.776486 26.020219 -157.749395 -79.743987 159.196465 -1.606885 1.235390 6.369084 0.665387 -2.080982 2.155012 71.246256 -11.181889 3.372620 176.582330 81.130390 175.027416 -0.000000 0.000000 0.000000 4.319142 3.192006 -22.869163 3.033171 3.261965 32.205633 -0.000000 -0.000000 0.000000 -3.492650 -5.844824 -18.949812 0.447293 0.897690 28.527166 
0.318023 0.163912 0.296706 -3.819973 -7.236434 -2.135064 -0.000000 0.000000 0.000000 -0.652029 0.742778 7.598243 -0.989344 1.227220 6.145557 0.000000 0.000000 0.000000 -1.022306 0.862194 7.138904 -1.316206 -1.134592 3.288487 -0.123863 1.681603 8.424393 -0.532849 -0.480215 0.542362 -74.469742 -17.070789 27.044347 -161.228808 -77.897848 162.670312 -1.762629 1.193976 6.399770 0.237082 -1.769656 2.068409 71.358833 -12.134633 3.733011 175.193131 81.768249 173.722636 -0.000000 0.000000 0.000000 4.500287 3.109027 -21.931872 2.336171 2.663703 31.729249 -0.000000 -0.000000 0.000000 -3.834919 -5.849899 -18.361272 0.232527 0.505107 27.704974 
0.402787 0.150879 0.328370 -3.862190 -6.921577 -2.251089 -0.000000 0.000000 0.000000 -0.595160 0.692125 7.518281 -1.032745 1.165398 6.327371 0.000000 0.000000 0.000000 -1.013551 0.816397 7.389160 -0.990326 -0.949954 3.546363 -0.077483 1.692867 8.348848 0.025727 0.602550 0.450582 -75.036064 -16.785883 27.566722 -162.786849 -76.804524 164.275953 -1.858563 1.185020 6.398280 0.120688 -1.622886 2.019036 71.039364 -13.109911 5.295276 174.977968 82.721162 173.485321 -0.000000 0.000000 0.000000 4.672325 2.856810 -22.099416 1.893612 2.091521 32.216620 -0.000000 -0.000000 0.000000 -3.794599 -5.626218 -18.201412 0.161378 0.440247 27.138077 
0.487373 0.135982 0.358282 -3.824241 -6.611936 -2.169823 -0.000000 0.000000 0.000000 -0.611101 0.611898 7.475330 -1.041913 1.099577 6.428314 0.000000 0.000000 0.000000 -0.976381 0.788378 7.404719 -0.672837 -0.892741 3.657790 -0.035939 1.651311 8.258873 0.461261 1.146670 0.381262 -75.427878 -16.515335 27.679723 -162.949301 -76.702442 164.453085 -1.887149 1.184205 6.393971 0.247479 -1.552721 2.007272 70.461443 -13.756660 6.649463 176.078294 83.762332 174.488705 -0.000000 0.000000 0.000000 4.673358 2.440873 -22.890640 1.468159 1.423394 33.227045 -0.000000 -0.000000 0.000000 -3.611190 -5.486103 -18.325997 0.180192 0.557014 26.742978 
0.560558 0.135690 0.392136 -3.760209 -6.337210 -1.948159 -0.000000 0.000000 0.000000 -0.633085 0.509147 7.401218 -1.038541 1.034540 6.486950 0.000000 0.000000 0.000000 -0.919481 0.776674 7.299179 -0.346957 -0.904253 3.692114 -0.002706 1.576916 8.166215 0.677430 1.265689 0.324672 -75.767399 -16.351207 27.823257 -162.883982 -76.903122 164.379300 -1.913285 1.165870 6.377078 0.394892 -1.604034 1.971284 69.925751 -13.727285 7.699558 178.146742 84.571733 176.494301 -0.000000 0.000000 0.000000 4.576827 1.998877 -23.766296 1.080293 0.844365 34.074837 -0.000000 -0.000000 0.000000 -3.483062 -5.350622 -18.655611 0.235202 0.729337 26.571938 
0.611924 0.162748 0.430134 -3.713014 -6.069302 -1.686821 -0.000000 0.000000 0.000000 -0.619433 0.389792 7.278238 -1.023159 0.959869 6.523046 0.000000 0.000000 0.000000 -0.847357 0.768560 7.093550 -0.075448 -0.979233 3.616009 0.014069 1.471874 8.065478 0.802011 1.101672 0.250898 -76.105131 -16.420340 27.882473 -162.277506 -77.599668 163.722031 -1.939573 1.129941 6.359633 0.515312 -1.702561 1.930734 69.394321 -13.249049 8.435498 -179.369866 85.227671 178.960978 -0.000000 0.000000 0.000000 4.513826 1.503418 -24.512797 0.751414 0.344739 34.699117 -0.000000 -0.000000 0.000000 -3.508621 -5.188699 -18.918570 0.299336 0.912764 26.422900 
0.649223 0.207350 0.471815 -3.707545 -6.002503 -1.534914 -0.000000 0.000000 0.000000 -0.596991 0.300530 7.165840 -1.011354 0.900951 6.555122 0.000000 0.000000 0.000000 -0.798089 0.755597 6.926832 0.145814 -1.111772 3.630832 0.025965 1.388203 8.009816 0.889464 0.919168 0.199115 -76.330279 -16.380109 27.842352 -161.542070 -78.312510 162.943180 -1.956613 1.091543 6.338778 0.654697 -1.814199 1.877231 68.997188 -12.529974 9.014742 -176.814476 85.544991 -178.501345 -0.000000 0.000000 0.000000 4.515198 1.106757 -25.007074 0.530883 -0.034800 35.172283 -0.000000 -0.000000 0.000000 -3.612910 -5.000476 -19.019641 0.340612 1.039533 26.324420 
